<svg xmlns="http://www.w3.org/2000/svg" viewBox="0 0 512 512">
  <defs>
    <linearGradient id="grad" x1="0%" y1="0%" x2="100%" y2="100%">
      <stop offset="0%" style="stop-color:#757AED;stop-opacity:1" />
      <stop offset="100%" style="stop-color:#5B64EA;stop-opacity:1" />
    </linearGradient>
  </defs>
  <!-- Background -->
  <rect width="512" height="512" rx="96" fill="url(#grad)"/>
  <!-- Play button triangle -->
  <path d="M200 160 L200 352 L360 256 Z" fill="white" opacity="0.95"/>
  <!-- Film strip lines -->
  <rect x="80" y="120" width="24" height="24" rx="4" fill="white" opacity="0.6"/>
  <rect x="80" y="168" width="24" height="24" rx="4" fill="white" opacity="0.6"/>
  <rect x="80" y="216" width="24" height="24" rx="4" fill="white" opacity="0.6"/>
  <rect x="80" y="264" width="24" height="24" rx="4" fill="white" opacity="0.6"/>
  <rect x="80" y="312" width="24" height="24" rx="4" fill="white" opacity="0.6"/>
  <rect x="80" y="360" width="24" height="24" rx="4" fill="white" opacity="0.6"/>
  <rect x="408" y="120" width="24" height="24" rx="4" fill="white" opacity="0.6"/>
  <rect x="408" y="168" width="24" height="24" rx="4" fill="white" opacity="0.6"/>
  <rect x="408" y="216" width="24" height="24" rx="4" fill="white" opacity="0.6"/>
  <rect x="408" y="264" width="24" height="24" rx="4" fill="white" opacity="0.6"/>
  <rect x="408" y="312" width="24" height="24" rx="4" fill="white" opacity="0.6"/>
  <rect x="408" y="360" width="24" height="24" rx="4" fill="white" opacity="0.6"/>
</svg>